<svg width="975" height="400" viewBox="0 0 975 400" fill="none" xmlns="http://www.w3.org/2000/svg">
<path d="M174.264 0.112922C174.141 0.221249 172.019 0.474013 169.61 0.654559C164.793 1.01565 160.874 1.48507 156.996 2.09893C155.649 2.31558 153.812 2.56835 152.914 2.67667C152.016 2.82111 151.118 3.03776 150.914 3.21831C150.669 3.39886 149.811 3.54329 148.995 3.54329C148.138 3.54329 147.321 3.68773 147.199 3.90438C147.076 4.08493 146.423 4.26548 145.77 4.26548C145.117 4.26548 144.464 4.40991 144.341 4.62657C144.219 4.80711 143.647 4.98766 143.076 4.98766C142.545 4.98766 141.769 5.1321 141.361 5.31264C140.994 5.49319 139.402 5.96261 137.81 6.39592C135.034 7.19032 133.646 7.62363 132.217 8.27359C131.809 8.45414 131.033 8.59858 130.462 8.59858C129.89 8.59858 129.441 8.74301 129.441 8.95967C129.441 9.14021 129.155 9.32076 128.829 9.32076C128.502 9.32076 127.318 9.68185 126.257 10.0791C121.889 11.8123 117.317 13.7261 116.378 14.1955C115.807 14.4844 114.337 15.1704 113.112 15.7121C111.888 16.2537 110.786 16.7954 110.663 16.9037C110.541 17.0481 109.357 17.662 108.01 18.3119C106.703 18.9619 105.111 19.7924 104.499 20.1896C103.887 20.5507 103.233 20.8757 103.029 20.8757C102.784 20.8757 102.295 21.2007 101.886 21.5979C101.478 21.9951 100.988 22.3201 100.825 22.3201C100.458 22.3201 94.8649 26.0393 90.4153 29.2169C84.5369 33.4417 74.7396 42.5051 69.1878 48.8603C67.5141 50.7741 62.9012 56.9126 62.9012 57.2015C62.9012 57.3098 62.5338 57.8876 62.0439 58.4653C61.5949 59.0431 60.4927 60.7041 59.6763 62.1485C56.7371 67.0593 56.6962 67.1676 53.8795 72.7646C53.3897 73.7395 52.859 74.7867 52.6549 75.1117C52.4508 75.4727 52.2875 76.0866 52.2875 76.4477C52.2875 76.8449 52.1242 77.2782 51.8792 77.3865C51.6751 77.4949 51.471 78.0004 51.471 78.4698C51.471 78.9392 51.2669 79.4448 51.0628 79.5531C50.8179 79.6614 50.6546 80.1669 50.6546 80.6364C50.6546 81.1058 50.4913 81.6113 50.2464 81.7196C50.0422 81.828 49.8381 82.4057 49.8381 82.9835C49.8381 83.5612 49.6748 84.1389 49.4299 84.2473C49.2258 84.3556 49.0217 84.9333 49.0217 85.5111C49.0217 86.0888 48.8584 86.6305 48.6543 86.7388C48.4502 86.8471 48.2053 87.461 48.0828 88.111C47.8379 89.2303 47.5929 90.4219 46.5724 95.08C46.0009 97.4993 45.3885 101.219 44.8578 105.191C44.5721 107.393 44.4088 145.308 44.2863 221.029L44.123 333.581L186.878 333.509L329.674 333.401V316.249V299.097L315.508 298.988L301.302 298.916L301.221 286.35L301.098 273.82L286.116 273.712L271.094 273.64L271.012 260.352L270.89 247.1L254.765 247.027L238.64 246.955L238.518 232.873L238.436 218.754H254.765H271.094L271.175 232.764L271.298 246.739H286.198H301.098V217.671V188.603L286.116 188.494L271.094 188.422V175.784V163.146L286.116 163.074L301.098 162.965L301.221 148.955L301.302 134.981L315.182 135.089C326.204 135.197 329.184 135.125 329.51 134.728C329.837 134.403 329.878 130.359 329.714 121.367C329.469 107.104 328.98 101.796 327.428 94.8995C327.183 93.8162 326.898 92.2635 326.734 91.4691C326.612 90.6747 326.367 89.8803 326.163 89.6998C325.959 89.4831 325.795 88.9415 325.795 88.4359C325.795 87.5332 325.142 85.4389 324.53 84.3556C324.326 83.9945 324.163 83.3084 324.163 82.8029C324.163 82.2974 323.999 81.9002 323.754 81.9002C323.55 81.9002 323.346 81.503 323.346 81.0336C323.346 80.528 323.183 80.0225 322.938 79.9142C322.734 79.8058 322.53 79.3725 322.53 78.9753C322.53 78.6142 322.366 78.0004 322.162 77.6393C321.795 76.9893 321.019 75.4005 320.448 74.0284C320.244 73.5951 319.917 72.8729 319.713 72.4035C319.509 71.9702 318.611 70.2369 317.672 68.5398C316.733 66.8427 315.998 65.3261 315.998 65.1816C315.998 65.0011 315.672 64.4233 315.222 63.9178C314.814 63.3762 313.712 61.6429 312.732 60.0541C311.793 58.4653 310.487 56.5515 309.834 55.8294C309.181 55.1072 308.65 54.4211 308.65 54.3128C308.65 54.2045 306.691 51.8212 304.282 48.9686C297.465 40.9524 284.279 29.6141 275.788 24.4866C275.298 24.1977 272.931 22.7534 270.563 21.309C268.155 19.9007 266.114 18.7091 265.95 18.7091C265.828 18.7091 265.175 18.348 264.481 17.9508C263.827 17.5175 261.582 16.4343 259.541 15.4954C257.459 14.5566 255.418 13.6177 254.969 13.4011C252.561 12.2817 250.519 11.4873 250.03 11.4873C249.703 11.4873 249.458 11.3068 249.458 11.1262C249.458 10.9096 249.091 10.7651 248.642 10.7651C248.193 10.7651 247.499 10.6207 247.09 10.4401C246.437 10.1513 245.621 9.82629 243.131 8.95967C240.641 8.09305 239.824 7.76806 239.171 7.47919C238.763 7.29865 238.15 7.15421 237.824 7.15421C237.497 7.15421 236.885 7.00977 236.477 6.82923C236.109 6.64868 234.966 6.3237 233.946 6.07093C232.925 5.81817 231.701 5.49319 231.17 5.31264C230.639 5.1321 229.782 4.98766 229.251 4.98766C228.72 4.98766 228.149 4.80711 228.027 4.62657C227.904 4.40991 227.169 4.26548 226.394 4.26548C225.618 4.26548 224.924 4.12104 224.802 3.94049C224.679 3.75995 223.863 3.54329 223.046 3.43496C222.189 3.32664 220.474 3.03776 219.25 2.82111C207.983 0.835105 201.696 0.329577 186.184 0.0768127C179.775 -0.0315148 174.427 -0.0315148 174.264 0.112922Z" fill="#215C5C"/>
<path d="M349.646 112.258C349.523 112.511 349.482 117.855 349.523 124.102L349.646 135.477H363.321H376.996V123.741V112.006L363.403 111.897C352.707 111.825 349.768 111.897 349.646 112.258Z" fill="#215C5C"/>
<path d="M301.896 163.935C301.773 164.404 301.691 170.037 301.773 176.501L301.896 188.236H315.775H329.655V175.779V163.321L315.898 163.213L302.1 163.14L301.896 163.935Z" fill="#215C5C"/>
<path d="M369.237 163.578C369.115 163.795 369.074 169.933 369.115 177.191L369.237 190.371H384.546H399.854L399.976 177.047C400.058 166.611 399.936 163.65 399.568 163.398C399.282 163.253 392.383 163.109 384.219 163.109C372.707 163.109 369.36 163.217 369.237 163.578Z" fill="#215C5C"/>
<path d="M330.95 211.747C330.787 211.855 330.664 219.619 330.664 228.971V245.979H349.361H368.016V228.827V211.675L349.606 211.566C339.482 211.53 331.072 211.603 330.95 211.747Z" fill="#215C5C"/>
<path d="M327.729 246.37C327.688 246.406 322.014 246.514 315.156 246.587C308.297 246.659 302.46 246.767 302.174 246.839C301.766 246.984 301.643 249.62 301.725 259.947L301.766 272.91L315.727 272.838L329.647 272.73L329.729 260.272C329.811 253.411 329.77 247.489 329.647 247.092C329.484 246.442 328.219 245.973 327.729 246.37Z" fill="#215C5C"/>
<path d="M8.57264 344.753C8.24607 344.897 7.30716 345.295 6.53154 345.62C5.75592 345.908 4.36797 346.847 3.42906 347.714C1.87782 349.194 1.55124 349.664 0.449043 352.083C0.122466 352.769 0 358.872 0 372.088C0 390.864 0.0816442 392.02 1.34713 394.511C2.00028 395.739 4.93947 398.158 6.53154 398.772C7.30716 399.097 8.28689 399.494 8.65429 399.675C9.10333 399.856 80.1746 400 186.802 400H364.256L366.746 398.881C369.93 397.472 370.706 396.786 372.053 394.403L373.114 392.453V372.052C373.114 358.836 372.951 351.578 372.706 351.433C372.502 351.325 372.298 350.819 372.298 350.386C372.298 349.917 371.563 348.797 370.624 347.894C369.113 346.342 368.46 345.945 365.235 344.789C363.847 344.32 9.55237 344.247 8.57264 344.753Z" fill="#215C5C"/>
<path d="M469.812 114.469H522.732V126.964H469.812V114.469ZM471.135 160.186H531.111V172.975H456.435V70.0746H529.053V82.8636H471.135V160.186ZM577.887 173.857C570.047 173.857 563.971 171.75 559.659 167.536C555.347 163.322 553.191 157.295 553.191 149.455V78.0126H567.303V148.867C567.303 153.081 568.332 156.315 570.39 158.569C572.546 160.823 575.584 161.95 579.504 161.95C583.914 161.95 587.589 160.725 590.529 158.275L594.939 168.418C592.783 170.28 590.186 171.652 587.148 172.534C584.208 173.416 581.121 173.857 577.887 173.857ZM539.961 106.678V95.0646H589.647V106.678H539.961ZM644.108 173.857C635.778 173.857 628.428 172.142 622.058 168.712C615.786 165.282 610.886 160.578 607.358 154.6C603.928 148.622 602.213 141.762 602.213 134.02C602.213 126.278 603.879 119.418 607.211 113.44C610.641 107.462 615.296 102.807 621.176 99.4746C627.154 96.0446 633.867 94.3296 641.315 94.3296C648.861 94.3296 655.525 95.9956 661.307 99.3276C667.089 102.66 671.597 107.364 674.831 113.44C678.163 119.418 679.829 126.425 679.829 134.461C679.829 135.049 679.78 135.735 679.682 136.519C679.682 137.303 679.633 138.038 679.535 138.724H613.238V128.581H672.185L666.452 132.109C666.55 127.111 665.521 122.652 663.365 118.732C661.209 114.812 658.22 111.774 654.398 109.618C650.674 107.364 646.313 106.237 641.315 106.237C636.415 106.237 632.054 107.364 628.232 109.618C624.41 111.774 621.421 114.861 619.265 118.879C617.109 122.799 616.031 127.307 616.031 132.403V134.755C616.031 139.949 617.207 144.604 619.559 148.72C622.009 152.738 625.39 155.874 629.702 158.128C634.014 160.382 638.963 161.509 644.549 161.509C649.155 161.509 653.32 160.725 657.044 159.157C660.866 157.589 664.198 155.237 667.04 152.101L674.831 161.215C671.303 165.331 666.893 168.467 661.601 170.623C656.407 172.779 650.576 173.857 644.108 173.857ZM699.425 172.975V95.0646H712.949V116.233L711.626 110.941C713.782 105.551 717.408 101.435 722.504 98.5926C727.6 95.7506 733.872 94.3296 741.32 94.3296V108.001C740.732 107.903 740.144 107.854 739.556 107.854C739.066 107.854 738.576 107.854 738.086 107.854C730.54 107.854 724.562 110.108 720.152 114.616C715.742 119.124 713.537 125.641 713.537 134.167V172.975H699.425ZM800.314 94.3296C806.684 94.3296 812.27 95.5546 817.072 98.0046C821.972 100.455 825.794 104.179 828.538 109.177C831.282 114.175 832.654 120.496 832.654 128.14V172.975H818.542V129.757C818.542 122.211 816.68 116.527 812.956 112.705C809.33 108.883 804.185 106.972 797.521 106.972C792.523 106.972 788.162 107.952 784.438 109.912C780.714 111.872 777.823 114.763 775.765 118.585C773.805 122.407 772.825 127.16 772.825 132.844V172.975H758.713V95.0646H772.237V116.086L770.032 110.5C772.58 105.404 776.5 101.435 781.792 98.5926C787.084 95.7506 793.258 94.3296 800.314 94.3296ZM907.134 172.975V156.511L906.399 153.424V125.347C906.399 119.369 904.635 114.763 901.107 111.529C897.677 108.197 892.483 106.531 885.525 106.531C880.919 106.531 876.411 107.315 872.001 108.883C867.591 110.353 863.867 112.362 860.829 114.91L854.949 104.326C858.967 101.092 863.769 98.6416 869.355 96.9756C875.039 95.2116 880.968 94.3296 887.142 94.3296C897.824 94.3296 906.056 96.9266 911.838 102.121C917.62 107.315 920.511 115.253 920.511 125.935V172.975H907.134ZM881.556 173.857C875.774 173.857 870.678 172.877 866.268 170.917C861.956 168.957 858.624 166.262 856.272 162.832C853.92 159.304 852.744 155.335 852.744 150.925C852.744 146.711 853.724 142.889 855.684 139.459C857.742 136.029 861.025 133.285 865.533 131.227C870.139 129.169 876.313 128.14 884.055 128.14H908.751V138.283H884.643C877.587 138.283 872.834 139.459 870.384 141.811C867.934 144.163 866.709 147.005 866.709 150.337C866.709 154.159 868.228 157.246 871.266 159.598C874.304 161.852 878.518 162.979 883.908 162.979C889.2 162.979 893.806 161.803 897.726 159.451C901.744 157.099 904.635 153.669 906.399 149.161L909.192 158.863C907.33 163.469 904.047 167.144 899.343 169.888C894.639 172.534 888.71 173.857 881.556 173.857ZM946.626 172.975V63.9006H960.738V172.975H946.626ZM476.868 332.975V242.864H441.588V230.075H526.701V242.864H491.421V332.975H476.868ZM538.787 332.975V255.065H552.311V276.233L550.988 270.941C553.144 265.551 556.77 261.435 561.866 258.593C566.962 255.751 573.234 254.33 580.682 254.33V268.001C580.094 267.903 579.506 267.854 578.918 267.854C578.428 267.854 577.938 267.854 577.448 267.854C569.902 267.854 563.924 270.108 559.514 274.616C555.104 279.124 552.899 285.641 552.899 294.167V332.975H538.787ZM640.696 332.975V316.511L639.961 313.424V285.347C639.961 279.369 638.197 274.763 634.669 271.529C631.239 268.197 626.045 266.531 619.087 266.531C614.481 266.531 609.973 267.315 605.563 268.883C601.153 270.353 597.429 272.362 594.391 274.91L588.511 264.326C592.529 261.092 597.331 258.642 602.917 256.976C608.601 255.212 614.53 254.33 620.704 254.33C631.386 254.33 639.618 256.927 645.4 262.121C651.182 267.315 654.073 275.253 654.073 285.935V332.975H640.696ZM615.118 333.857C609.336 333.857 604.24 332.877 599.83 330.917C595.518 328.957 592.186 326.262 589.834 322.832C587.482 319.304 586.306 315.335 586.306 310.925C586.306 306.711 587.286 302.889 589.246 299.459C591.304 296.029 594.587 293.285 599.095 291.227C603.701 289.169 609.875 288.14 617.617 288.14H642.313V298.283H618.205C611.149 298.283 606.396 299.459 603.946 301.811C601.496 304.163 600.271 307.005 600.271 310.337C600.271 314.159 601.79 317.246 604.828 319.598C607.866 321.852 612.08 322.979 617.47 322.979C622.762 322.979 627.368 321.803 631.288 319.451C635.306 317.099 638.197 313.669 639.961 309.161L642.754 318.863C640.892 323.469 637.609 327.144 632.905 329.888C628.201 332.534 622.272 333.857 615.118 333.857ZM714.146 333.857C706.208 333.857 699.103 332.142 692.831 328.712C686.657 325.282 681.806 320.578 678.278 314.6C674.75 308.622 672.986 301.762 672.986 294.02C672.986 286.278 674.75 279.418 678.278 273.44C681.806 267.462 686.657 262.807 692.831 259.475C699.103 256.045 706.208 254.33 714.146 254.33C721.202 254.33 727.474 255.751 732.962 258.593C738.548 261.337 742.86 265.453 745.898 270.941L735.167 277.85C732.619 274.028 729.483 271.235 725.759 269.471C722.133 267.609 718.213 266.678 713.999 266.678C708.903 266.678 704.346 267.805 700.328 270.059C696.31 272.313 693.125 275.498 690.773 279.614C688.421 283.632 687.245 288.434 687.245 294.02C687.245 299.606 688.421 304.457 690.773 308.573C693.125 312.689 696.31 315.874 700.328 318.128C704.346 320.382 708.903 321.509 713.999 321.509C718.213 321.509 722.133 320.627 725.759 318.863C729.483 317.001 732.619 314.159 735.167 310.337L745.898 317.099C742.86 322.489 738.548 326.654 732.962 329.594C727.474 332.436 721.202 333.857 714.146 333.857ZM797.712 333.857C789.382 333.857 782.032 332.142 775.662 328.712C769.39 325.282 764.49 320.578 760.962 314.6C757.532 308.622 755.817 301.762 755.817 294.02C755.817 286.278 757.483 279.418 760.815 273.44C764.245 267.462 768.9 262.807 774.78 259.475C780.758 256.045 787.471 254.33 794.919 254.33C802.465 254.33 809.129 255.996 814.911 259.328C820.693 262.66 825.201 267.364 828.435 273.44C831.767 279.418 833.433 286.425 833.433 294.461C833.433 295.049 833.384 295.735 833.286 296.519C833.286 297.303 833.237 298.038 833.139 298.724H766.842V288.581H825.789L820.056 292.109C820.154 287.111 819.125 282.652 816.969 278.732C814.813 274.812 811.824 271.774 808.002 269.618C804.278 267.364 799.917 266.237 794.919 266.237C790.019 266.237 785.658 267.364 781.836 269.618C778.014 271.774 775.025 274.861 772.869 278.879C770.713 282.799 769.635 287.307 769.635 292.403V294.755C769.635 299.949 770.811 304.604 773.163 308.72C775.613 312.738 778.994 315.874 783.306 318.128C787.618 320.382 792.567 321.509 798.153 321.509C802.759 321.509 806.924 320.725 810.648 319.157C814.47 317.589 817.802 315.237 820.644 312.101L828.435 321.215C824.907 325.331 820.497 328.467 815.205 330.623C810.011 332.779 804.18 333.857 797.712 333.857Z" fill="#215C5C"/>
</svg>
