<svg width="400" height="400" viewBox="0 0 400 400" fill="none" xmlns="http://www.w3.org/2000/svg">
<path d="M174.264 0.112915C174.141 0.221252 172.019 0.473999 169.61 0.654572C164.793 1.01566 160.874 1.48508 156.996 2.09894C155.649 2.31558 153.812 2.56836 152.914 2.67667C152.016 2.82111 151.118 3.03775 150.914 3.21832C150.669 3.39886 149.811 3.5433 148.995 3.5433C148.138 3.5433 147.321 3.68774 147.199 3.90439C147.076 4.08493 146.423 4.26547 145.77 4.26547C145.117 4.26547 144.464 4.40991 144.341 4.62656C144.219 4.8071 143.647 4.98767 143.076 4.98767C142.545 4.98767 141.769 5.13211 141.361 5.31265C140.994 5.49319 139.402 5.96262 137.81 6.3959C135.034 7.19031 133.646 7.62363 132.217 8.27359C131.809 8.45413 131.033 8.59857 130.462 8.59857C129.89 8.59857 129.441 8.74301 129.441 8.95966C129.441 9.1402 129.155 9.32077 128.829 9.32077C128.502 9.32077 127.318 9.68185 126.257 10.079C121.889 11.8123 117.317 13.7261 116.378 14.1955C115.807 14.4844 114.337 15.1704 113.112 15.7121C111.888 16.2537 110.786 16.7953 110.663 16.9037C110.541 17.0481 109.357 17.662 108.01 18.312C106.703 18.9619 105.111 19.7924 104.499 20.1896C103.887 20.5507 103.233 20.8757 103.029 20.8757C102.784 20.8757 102.295 21.2007 101.886 21.5979C101.478 21.9951 100.988 22.3201 100.825 22.3201C100.458 22.3201 94.8649 26.0393 90.4153 29.2169C84.5369 33.4417 74.7396 42.5051 69.1878 48.8603C67.5141 50.7741 62.9012 56.9126 62.9012 57.2015C62.9012 57.3098 62.5338 57.8876 62.0439 58.4653C61.5949 59.0431 60.4927 60.7041 59.6763 62.1485C56.7371 67.0593 56.6962 67.1676 53.8795 72.7646C53.3897 73.7395 52.859 74.7867 52.6549 75.1117C52.4508 75.4727 52.2875 76.0866 52.2875 76.4477C52.2875 76.8449 52.1242 77.2782 51.8792 77.3865C51.6751 77.4949 51.471 78.0004 51.471 78.4698C51.471 78.9392 51.2669 79.4448 51.0628 79.5531C50.8179 79.6614 50.6546 80.1669 50.6546 80.6364C50.6546 81.1058 50.4913 81.6113 50.2464 81.7196C50.0422 81.828 49.8381 82.4057 49.8381 82.9835C49.8381 83.5612 49.6748 84.1389 49.4299 84.2473C49.2258 84.3556 49.0217 84.9333 49.0217 85.5111C49.0217 86.0888 48.8584 86.6305 48.6543 86.7388C48.4502 86.8471 48.2053 87.461 48.0828 88.111C47.8379 89.2303 47.5929 90.4219 46.5724 95.08C46.0009 97.4993 45.3885 101.219 44.8578 105.191C44.5721 107.393 44.4088 145.308 44.2863 221.029L44.123 333.581L186.878 333.509L329.673 333.401V316.249V299.097L315.508 298.988L301.302 298.916L301.221 286.35L301.098 273.82L286.116 273.712L271.094 273.64L271.012 260.352L270.89 247.1L254.765 247.027L238.64 246.955L238.518 232.873L238.436 218.754H254.765H271.094L271.175 232.764L271.298 246.739H286.198H301.098V217.671V188.603L286.116 188.494L271.094 188.422V175.784V163.146L286.116 163.074L301.098 162.965L301.221 148.955L301.302 134.981L315.182 135.089C326.204 135.197 329.184 135.125 329.51 134.728C329.837 134.403 329.878 130.359 329.714 121.367C329.469 107.104 328.98 101.796 327.428 94.8995C327.183 93.8162 326.898 92.2635 326.734 91.4691C326.612 90.6747 326.367 89.8803 326.163 89.6998C325.959 89.4831 325.795 88.9415 325.795 88.4359C325.795 87.5332 325.142 85.4389 324.53 84.3556C324.326 83.9945 324.163 83.3084 324.163 82.8029C324.163 82.2974 323.999 81.9002 323.754 81.9002C323.55 81.9002 323.346 81.503 323.346 81.0336C323.346 80.528 323.183 80.0225 322.938 79.9142C322.734 79.8058 322.53 79.3725 322.53 78.9753C322.53 78.6142 322.366 78.0004 322.162 77.6393C321.795 76.9893 321.019 75.4005 320.448 74.0284C320.244 73.5951 319.917 72.8729 319.713 72.4035C319.509 71.9702 318.611 70.2369 317.672 68.5398C316.733 66.8427 315.998 65.3261 315.998 65.1816C315.998 65.0011 315.672 64.4233 315.223 63.9178C314.814 63.3762 313.712 61.6429 312.732 60.0541C311.793 58.4653 310.487 56.5515 309.834 55.8294C309.181 55.1072 308.65 54.4211 308.65 54.3128C308.65 54.2044 306.691 51.8213 304.282 48.9686C297.465 40.9524 284.279 29.6141 275.788 24.4866C275.298 24.1977 272.931 22.7534 270.563 21.309C268.155 19.9008 266.114 18.7091 265.95 18.7091C265.828 18.7091 265.175 18.3481 264.481 17.9508C263.827 17.5175 261.582 16.4343 259.541 15.4954C257.459 14.5566 255.418 13.6177 254.969 13.4011C252.561 12.2817 250.519 11.4873 250.03 11.4873C249.703 11.4873 249.458 11.3068 249.458 11.1262C249.458 10.9096 249.091 10.7651 248.642 10.7651C248.193 10.7651 247.499 10.6207 247.09 10.4402C246.437 10.1513 245.621 9.82629 243.131 8.95966C240.641 8.09305 239.824 7.76807 239.171 7.47919C238.763 7.29865 238.15 7.15421 237.824 7.15421C237.497 7.15421 236.885 7.00977 236.477 6.82922C236.109 6.64868 234.966 6.3237 233.946 6.07092C232.925 5.81818 231.701 5.49319 231.17 5.31265C230.639 5.13211 229.782 4.98767 229.251 4.98767C228.721 4.98767 228.149 4.8071 228.027 4.62656C227.904 4.40991 227.169 4.26547 226.394 4.26547C225.618 4.26547 224.924 4.12103 224.802 3.94049C224.679 3.75995 223.863 3.5433 223.046 3.43497C222.189 3.32663 220.474 3.03775 219.25 2.82111C207.983 0.835114 201.696 0.32959 186.184 0.0768127C179.775 -0.0315247 174.427 -0.0315247 174.264 0.112915Z" fill="#215C5C"/>
<path d="M349.646 112.258C349.523 112.511 349.482 117.855 349.523 124.102L349.646 135.477H363.321H376.996V123.741V112.006L363.403 111.897C352.707 111.825 349.768 111.897 349.646 112.258Z" fill="#215C5C"/>
<path d="M301.896 163.935C301.773 164.404 301.691 170.037 301.773 176.501L301.896 188.236H315.775H329.655V175.779V163.321L315.898 163.213L302.1 163.14L301.896 163.935Z" fill="#215C5C"/>
<path d="M369.237 163.578C369.115 163.795 369.074 169.933 369.115 177.191L369.237 190.371H384.546H399.854L399.976 177.047C400.058 166.611 399.936 163.65 399.568 163.398C399.282 163.253 392.383 163.109 384.219 163.109C372.707 163.109 369.36 163.217 369.237 163.578Z" fill="#215C5C"/>
<path d="M330.95 211.747C330.787 211.855 330.664 219.619 330.664 228.971V245.979H349.361H368.016V228.827V211.675L349.606 211.567C339.482 211.53 331.072 211.603 330.95 211.747Z" fill="#215C5C"/>
<path d="M327.729 246.37C327.688 246.406 322.014 246.514 315.156 246.587C308.297 246.659 302.46 246.767 302.174 246.839C301.766 246.984 301.643 249.62 301.725 259.947L301.766 272.91L315.727 272.838L329.647 272.73L329.729 260.272C329.811 253.411 329.77 247.489 329.647 247.092C329.484 246.442 328.219 245.973 327.729 246.37Z" fill="#215C5C"/>
<path d="M8.57264 344.753C8.24607 344.897 7.30716 345.295 6.53154 345.62C5.75592 345.908 4.36797 346.847 3.42906 347.714C1.87782 349.194 1.55124 349.664 0.449043 352.083C0.122466 352.769 0 358.872 0 372.088C0 390.864 0.0816443 392.02 1.34713 394.511C2.00028 395.739 4.93947 398.158 6.53154 398.772C7.30716 399.097 8.28689 399.494 8.65429 399.675C9.10333 399.856 80.1746 400 186.802 400H364.256L366.746 398.881C369.93 397.472 370.706 396.786 372.053 394.403L373.114 392.453V372.052C373.114 358.836 372.951 351.578 372.706 351.433C372.502 351.325 372.298 350.819 372.298 350.386C372.298 349.917 371.563 348.797 370.624 347.894C369.113 346.342 368.46 345.945 365.235 344.789C363.847 344.32 9.55237 344.247 8.57264 344.753Z" fill="#215C5C"/>
</svg>
